<?xml version="1.0" encoding="utf-8"?>
<!-- Generator: Adobe Illustrator 24.3.0, SVG Export Plug-In . SVG Version: 6.00 Build 0)  -->
<svg version="1.1" id="Calque_1" xmlns="http://www.w3.org/2000/svg" xmlns:xlink="http://www.w3.org/1999/xlink" x="0px" y="0px"
	 viewBox="0 0 82.4 48.2" style="enable-background:new 0 0 82.4 48.2;" xml:space="preserve">
<style type="text/css">
	.st0{fill:url(#SVGID_1_);}
	.st1{fill:#0575E6;}
	.st2{fill:none;}
	.st3{font-family:'ArialMT';}
	.st4{font-size:12px;}
	.st5{font-family:'Futura-Medium';}
</style>
<g>
	
		<linearGradient id="SVGID_1_" gradientUnits="userSpaceOnUse" x1="8.5236" y1="15.7377" x2="74.6468" y2="15.7377" gradientTransform="matrix(1 0 0 -1 0 50)">
		<stop  offset="0" style="stop-color:#00F260"/>
		<stop  offset="1" style="stop-color:#0575E6"/>
	</linearGradient>
	<path class="st0" d="M74.2,26.8c-5.3-3.4-11.6-5.5-17.8-6.2c-6.4-0.7-12.8,0.1-18.9,1.9s-11.9,4.8-16.9,8.7c-2.5,2-4.8,4.2-6.8,6.7
		s-3.7,5.2-5.1,8.1c-0.4,0.8-0.1,1.7,0.7,2c0.8,0.4,1.7,0.1,2.1-0.7l0,0c1.3-2.6,3-5.1,4.9-7.4s4.1-4.4,6.4-6.3
		c4.7-3.7,10.1-6.5,15.7-8.4c5.7-1.9,11.7-2.6,17.7-2.2s11.9,2,17.1,5c0.4,0.3,0.9,0.1,1.1-0.3C74.8,27.5,74.7,27,74.2,26.8z"/>
	<path class="st1" d="M82.4,8.7c0-4.8-3.9-8.7-8.7-8.7C68.9,0,65,3.9,65,8.7s8.7,16.1,8.7,16.1S82.4,13.5,82.4,8.7z M68.8,8.7
		c0-2.8,2.3-5,5-5s5,2.3,5,5c0,2.8-2.3,5-5,5S68.8,11.5,68.8,8.7z"/>
</g>
<path id="SVGID_x5F_2_x5F_" class="st2" d="M1.9,45.8c0,0,23.9-41.8,71.4-26.5"/>
<g>
	<text transform="matrix(0.6195 -0.785 0.785 0.6195 6.29 40.2415)" class="st3 st4"> </text>
	<text transform="matrix(0.6881 -0.7256 0.7256 0.6881 8.2951 37.4985)" class="st5 st4">A</text>
	<text transform="matrix(0.7868 -0.6172 0.6172 0.7868 14.4007 31.0125)" class="st5 st4">m</text>
	<text transform="matrix(0.8677 -0.4971 0.4971 0.8677 21.9244 25.2086)" class="st5 st4">a</text>
	<text transform="matrix(0.9227 -0.3855 0.3855 0.9227 28.1838 21.6451)" class="st5 st4">z</text>
	<text transform="matrix(0.9623 -0.272 0.272 0.9623 34.2081 19.1259)" class="st5 st4">e</text>
	<text transform="matrix(0.9833 -0.1822 0.1822 0.9833 40.616 17.3873)" class="st5 st4"> </text>
	<text transform="matrix(0.9948 -0.1018 0.1018 0.9948 44.2533 16.6708)" class="st5 st4">T</text>
	<text transform="matrix(0.9998 -1.902909e-02 1.902909e-02 0.9998 50.0414 16.1393)" class="st5 st4">r</text>
	<text transform="matrix(0.9993 3.760562e-02 -3.760562e-02 0.9993 54.5052 16.0471)" class="st5 st4">i</text>
	<text transform="matrix(0.994 0.1092 -0.1092 0.994 57.4985 16.087)" class="st5 st4">p</text>
</g>
<text class="st3 st4"> </text>
</svg>
